<?xml version="1.0" standalone="no"?>
<!DOCTYPE svg PUBLIC "-//W3C//DTD SVG 20010904//EN"
 "http://www.w3.org/TR/2001/REC-SVG-20010904/DTD/svg10.dtd">
<svg version="1.0" xmlns="http://www.w3.org/2000/svg"
 width="199.000000pt" height="199.000000pt" viewBox="0 0 199.000000 199.000000"
 preserveAspectRatio="xMidYMid meet">
<metadata>
Created by potrace 1.14, written by Peter Selinger 2001-2017
</metadata>
<g transform="translate(0.000000,199.000000) scale(0.100000,-0.100000)"
fill="#000000" stroke="none">
<path d="M1122 1518 c-16 -16 -15 -52 2 -108 18 -61 41 -64 57 -8 6 24 13 55
15 70 6 45 -44 76 -74 46z"/>
<path d="M671 1388 c-58 -174 -66 -192 -86 -198 -11 -3 -21 -11 -22 -17 -2 -9
13 -13 52 -13 42 0 55 3 55 15 0 8 -7 15 -16 15 -12 0 -15 6 -10 23 3 12 6 25
6 30 0 4 20 7 45 7 34 0 47 -5 55 -19 14 -27 13 -41 -5 -41 -8 0 -15 -7 -15
-15 0 -12 16 -15 80 -15 64 0 80 3 80 15 0 8 -6 15 -13 15 -8 0 -33 56 -63
145 l-49 145 -31 0 c-31 0 -32 -2 -63 -92z m51 -58 l16 -50 -38 0 -38 0 16 50
c9 28 18 50 21 50 3 0 13 -23 23 -50z"/>
<path d="M900 1465 c0 -8 9 -15 20 -15 11 0 20 -3 21 -7 0 -5 3 -79 5 -165 l4
-157 -29 16 c-33 19 -61 12 -61 -16 0 -41 65 -53 116 -22 51 31 63 71 65 215
1 113 3 127 20 136 39 21 18 30 -71 30 -73 0 -90 -3 -90 -15z"/>
<path d="M1248 1395 c-42 -23 -54 -92 -22 -125 7 -8 33 -21 56 -30 54 -20 61
-53 12 -58 -28 -3 -32 0 -37 27 -11 52 -60 37 -53 -15 6 -42 99 -58 162 -28
34 17 51 48 45 89 -2 23 -45 65 -66 65 -24 0 -65 23 -65 36 0 12 22 24 46 24
7 0 16 -11 20 -25 8 -34 42 -33 50 1 4 14 2 30 -3 35 -18 18 -116 21 -145 4z"/>
<path d="M273 886 c-36 -16 -54 -44 -55 -86 -1 -42 25 -76 80 -104 59 -30 76
-49 67 -75 -7 -24 -34 -34 -69 -25 -20 5 -26 12 -26 35 0 26 -4 29 -30 29 -28
0 -30 -2 -30 -40 0 -37 2 -40 38 -49 75 -22 158 -7 191 33 8 9 14 38 14 63 0
50 -13 65 -91 104 -56 28 -71 55 -44 81 27 27 58 16 66 -22 4 -24 10 -29 30
-28 20 2 25 9 28 36 2 19 -1 37 -9 43 -21 18 -124 21 -160 5z"/>
<path d="M1421 845 c-7 -19 -18 -35 -26 -35 -22 0 -29 -22 -12 -35 13 -10 17
-29 17 -93 0 -95 14 -117 78 -120 29 -2 43 3 62 23 l23 25 -31 0 c-18 0 -32 3
-33 8 0 4 -1 40 -2 80 -2 69 -1 72 21 72 15 0 22 6 22 20 0 13 -7 20 -20 20
-18 0 -27 26 -21 63 0 4 -14 7 -32 7 -29 0 -35 -5 -46 -35z"/>
<path d="M923 805 c-39 -17 -65 -64 -65 -120 0 -54 14 -81 55 -105 55 -34 154
-19 171 26 10 26 -2 34 -30 19 -28 -14 -49 -11 -76 13 -35 29 -22 41 50 44 59
3 67 5 67 23 1 90 -83 139 -172 100z m77 -29 c18 -23 8 -61 -17 -64 -20 -3
-23 1 -23 31 0 47 16 61 40 33z"/>
<path d="M1183 805 c-60 -26 -87 -132 -49 -190 35 -53 126 -70 184 -35 38 23
45 57 10 45 -37 -12 -68 -8 -89 11 -37 33 -24 44 51 44 l70 0 -6 38 c-8 51
-20 69 -54 87 -36 18 -75 19 -117 0z m82 -35 c9 -29 -4 -60 -25 -60 -25 0 -29
9 -18 48 10 36 33 43 43 12z"/>
<path d="M1623 810 c-35 -15 -56 -55 -49 -93 6 -34 22 -46 99 -76 34 -13 35
-39 2 -47 -36 -9 -55 2 -55 31 0 20 -5 25 -25 25 -22 0 -25 -4 -25 -34 0 -28
5 -36 30 -46 48 -20 130 -7 158 25 25 29 28 71 8 98 -8 10 -36 26 -63 37 -33
12 -48 24 -48 36 0 31 43 31 55 0 6 -16 16 -24 29 -23 24 1 34 42 14 58 -18
16 -102 21 -130 9z"/>
<path d="M455 801 c-3 -6 1 -13 8 -18 8 -4 31 -54 52 -110 32 -90 40 -103 60
-103 20 0 27 10 45 65 12 36 25 67 29 69 4 3 18 -27 31 -65 21 -63 26 -70 48
-67 21 3 29 16 60 103 19 54 44 107 56 117 21 17 20 17 -31 18 -57 0 -60 -2
-40 -22 11 -11 11 -22 -3 -63 l-17 -50 -16 50 c-12 33 -14 52 -7 59 20 20 8
26 -56 26 -48 0 -64 -3 -61 -12 2 -7 10 -12 17 -10 12 3 10 -7 -15 -78 -9 -23
-15 -30 -18 -20 -27 77 -28 85 -12 96 8 6 12 14 8 17 -10 11 -131 8 -138 -2z"/>
</g>
</svg>
